<svg width="1399" height="1399" viewBox="0 0 1399 1399" fill="none" xmlns="http://www.w3.org/2000/svg">
<circle cx="699.5" cy="699.5" r="699.5" fill="#496695"/>
<path d="M0 698H320C342.091 698 360 715.909 360 738V895.75C360 919.912 379.587 939.5 403.75 939.5V939.5C427.912 939.5 447.5 919.912 447.5 895.75V507.25C447.5 480.878 468.878 459.5 495.25 459.5V459.5C521.622 459.5 543 480.878 543 507.25V891.75C543 918.122 564.378 939.5 590.75 939.5V939.5C617.122 939.5 638.5 918.122 638.5 891.75V508.25C638.5 481.326 660.326 459.5 687.25 459.5V459.5C714.174 459.5 736 481.326 736 508.25V892.75C736 918.569 756.931 939.5 782.75 939.5V939.5C808.569 939.5 829.5 918.569 829.5 892.75V507.25C829.5 480.878 850.878 459.5 877.25 459.5V459.5C903.622 459.5 925 480.878 925 507.25V891.5C925 918.01 946.49 939.5 973 939.5V939.5C999.51 939.5 1021 918.01 1021 891.5V505.25C1021 479.983 1041.48 459.5 1066.75 459.5V459.5C1092.02 459.5 1112.5 479.983 1112.5 505.25V662C1112.5 684.091 1130.41 702 1152.5 702H1292H1399" stroke="white" stroke-width="30"/>
<path d="M828.38 1200C817.1 1200 811.46 1194.72 811.46 1184.16V1103.16C811.46 1092.6 817.1 1087.32 828.38 1087.32H848.36C859.52 1087.32 865.1 1092.6 865.1 1103.16V1184.16C865.1 1192.32 861.74 1197.36 855.02 1199.28L867.8 1216.38H850.52L838.64 1200H828.38ZM827.84 1105.68V1181.64C827.84 1183.8 828.14 1185.24 828.74 1185.96C829.46 1186.56 830.9 1186.86 833.06 1186.86H843.5C845.66 1186.86 847.1 1186.56 847.82 1185.96C848.54 1185.24 848.9 1183.8 848.9 1181.64V1105.68C848.9 1103.52 848.54 1102.14 847.82 1101.54C847.1 1100.82 845.66 1100.46 843.5 1100.46H833.06C830.9 1100.46 829.46 1100.82 828.74 1101.54C828.14 1102.14 827.84 1103.52 827.84 1105.68Z" fill="white"/>
<path d="M866.76 1241.34L944.05 1158.42C951.057 1150.9 951.226 1139.3 944.441 1131.58L866 1042.34" stroke="white" stroke-width="5"/>
<path d="M533 1042L455.394 1124.63C448.359 1132.12 448.145 1143.72 454.901 1151.47L533 1241" stroke="white" stroke-width="5"/>
<path d="M631 1062V1222" stroke="white" stroke-width="5"/>
<path d="M768 1062V1222" stroke="white" stroke-width="5"/>
<path d="M594.2 1120.26H577.82V1105.32C577.82 1103.16 577.46 1101.78 576.74 1101.18C576.02 1100.46 574.58 1100.1 572.42 1100.1H563.24C561.08 1100.1 559.64 1100.46 558.92 1101.18C558.2 1101.78 557.84 1103.16 557.84 1105.32V1182.18C557.84 1184.34 558.2 1185.78 558.92 1186.5C559.64 1187.1 561.08 1187.4 563.24 1187.4H572.42C574.58 1187.4 576.02 1187.1 576.74 1186.5C577.46 1185.78 577.82 1184.34 577.82 1182.18V1154.64H568.82V1142.04H594.2V1184.16C594.2 1194.84 588.62 1200.18 577.46 1200.18H558.2C547.04 1200.18 541.46 1194.84 541.46 1184.16V1103.16C541.46 1092.6 547.04 1087.32 558.2 1087.32H577.46C588.62 1087.32 594.2 1092.6 594.2 1103.16V1120.26Z" fill="white"/>
<path d="M727.2 1122.6H710.64V1105.32C710.64 1103.16 710.28 1101.78 709.56 1101.18C708.96 1100.46 707.58 1100.1 705.42 1100.1H696.24C694.08 1100.1 692.64 1100.46 691.92 1101.18C691.2 1101.78 690.84 1103.16 690.84 1105.32V1182.18C690.84 1184.34 691.2 1185.78 691.92 1186.5C692.64 1187.1 694.08 1187.4 696.24 1187.4H705.42C707.58 1187.4 708.96 1187.1 709.56 1186.5C710.28 1185.78 710.64 1184.34 710.64 1182.18V1165.08H727.2V1184.16C727.2 1194.84 721.56 1200.18 710.28 1200.18H691.2C680.04 1200.18 674.46 1194.84 674.46 1184.16V1103.16C674.46 1092.6 680.04 1087.32 691.2 1087.32H710.28C721.56 1087.32 727.2 1092.6 727.2 1103.16V1122.6Z" fill="white"/>
</svg>
